<svg xmlns="http://www.w3.org/2000/svg" xmlns:xlink="http://www.w3.org/1999/xlink" width="80" height="439.182"
    viewBox="0 0 80 439.182">

    <g xmlns="http://www.w3.org/2000/svg" id="Group_7320" data-name="Group 7320" transform="translate(5848 -1102)"
        clip-path="url(#clip-path-4)">
        <path id="Path_5713" data-name="Path 5713"
            d="M1190.8,380.657a3.32,3.32,0,0,1,3.318-3.318h10.253a1.51,1.51,0,0,0,1.508-1.508v-8.507a4.53,4.53,0,0,0-4.524-4.524h-4.223a4.53,4.53,0,0,0-4.524,4.524V369.8h6.636a.905.905,0,1,1,0,1.81h-10.92a4.53,4.53,0,0,0-4.524,4.522v4.223a4.53,4.53,0,0,0,4.524,4.524h2.476Zm6.332-13.272a.9.9,0,1,1,.636-.264A.9.9,0,0,1,1197.132,367.385Zm13.031,4.223h-2.474v4.223a3.32,3.32,0,0,1-3.318,3.318h-10.257a1.51,1.51,0,0,0-1.508,1.508v8.506a4.53,4.53,0,0,0,4.524,4.524h4.223a4.53,4.53,0,0,0,4.524-4.524v-2.474h-6.633a.9.9,0,0,1,0-1.81h10.919a4.53,4.53,0,0,0,4.524-4.524v-4.223a4.53,4.53,0,0,0-4.524-4.524Zm-8.808,17.494a.9.9,0,1,1-.636.264.9.9,0,0,1,.636-.264Z"
            fill="#4c4c4c" />
    </g>

</svg>