<svg xmlns="http://www.w3.org/2000/svg" width="56" height="39.026" viewBox="0 0 76.533 39.026">
    <path
        d="M2380.7 6597.866a12.252 12.252.0 00-.261-1.513l-30.726-.027a12.545 12.545.0 01.908-3.443 12.337 12.337.0 012.739-4.044 12.151 12.151.0 014.018-2.581 12.634 12.634.0 0114.3 3.051l4.852-4.748a18.176 18.176.0 00-6.131-4.331 20.037 20.037.0 00-8.112-1.564 20.25 20.25.0 00-7.671 1.459 19.158 19.158.0 00-6.261 4.07 19.584 19.584.0 00-4.226 6.184 18.7 18.7.0 00-1.487 5.947h-.2a18.674 18.674.0 00-1.489-5.947 19.544 19.544.0 00-4.226-6.184 19.133 19.133.0 00-6.261-4.07 21.354 21.354.0 00-15.783.1 18.2 18.2.0 00-6.131 4.331l4.853 4.748a13.264 13.264.0 0114.3-3.051 12.131 12.131.0 014.017 2.581 12.323 12.323.0 012.74 4.044 12.527 12.527.0 01.908 3.443l-30.726.027a12.256 12.256.0 00-.261 1.513 15 15 0 00-.1 1.773 20.713 20.713.0 001.1 6.783 15.709 15.709.0 003.443 5.686 17.309 17.309.0 006 4.123 20.587 20.587.0 007.983 1.46 20.226 20.226.0 007.669-1.46 19.086 19.086.0 006.261-4.07 19.506 19.506.0 004.226-6.184 18.163 18.163.0 001.153-3.629h.871a18.27 18.27.0 001.151 3.629 19.545 19.545.0 004.226 6.184 19.111 19.111.0 006.261 4.07 20.241 20.241.0 007.671 1.46 20.572 20.572.0 007.981-1.46 17.282 17.282.0 006-4.123 15.717 15.717.0 003.445-5.686 20.726 20.726.0 001.1-6.783A15.259 15.259.0 002380.7 6597.866zm-46.245 5.608a12.1 12.1.0 01-2.766 4.043 12.467 12.467.0 01-4.043 2.583 14.378 14.378.0 01-9.939.052 11.776 11.776.0 01-3.522-2.218 8.459 8.459.0 01-1.8-2.374 13.476 13.476.0 01-1.173-3.208h23.658A11.487 11.487.0 012334.457 6603.475zm38.236 2.086a8.466 8.466.0 01-1.8 2.374 11.771 11.771.0 01-3.522 2.218 14.378 14.378.0 01-9.939-.052 12.491 12.491.0 01-4.044-2.583 12.088 12.088.0 01-2.765-4.043 11.427 11.427.0 01-.415-1.126h11.92v0h11.739A13.509 13.509.0 012372.692 6605.561z"
        transform="translate(-2304.273 -6578.666)" fill="#2f8d46"></path>
</svg>